<?xml version="1.0" encoding="UTF-8" standalone="no"?>
<!-- Created with Inkscape (http://www.inkscape.org/) -->

<svg
   xmlns:dc="http://purl.org/dc/elements/1.1/"
   xmlns:cc="http://creativecommons.org/ns#"
   xmlns:rdf="http://www.w3.org/1999/02/22-rdf-syntax-ns#"
   xmlns:svg="http://www.w3.org/2000/svg"
   xmlns="http://www.w3.org/2000/svg"
   xmlns:sodipodi="http://sodipodi.sourceforge.net/DTD/sodipodi-0.dtd"
   xmlns:inkscape="http://www.inkscape.org/namespaces/inkscape"
   width="197.38322mm"
   height="134.11945mm"
   viewBox="0 0 197.38322 134.11945"
   version="1.1"
   id="svg5660"
   inkscape:version="0.92.3 (2405546, 2018-03-11)"
   sodipodi:docname="marca.svg">
  <defs
     id="defs5654" />
  <sodipodi:namedview
     id="base"
     pagecolor="#ffffff"
     bordercolor="#666666"
     borderopacity="1.0"
     inkscape:pageopacity="0.0"
     inkscape:pageshadow="2"
     inkscape:zoom="0.35"
     inkscape:cx="906.33754"
     inkscape:cy="6.0655671"
     inkscape:document-units="mm"
     inkscape:current-layer="layer1"
     showgrid="false"
     fit-margin-top="10"
     fit-margin-left="10"
     fit-margin-right="10"
     fit-margin-bottom="10"
     inkscape:window-width="1920"
     inkscape:window-height="1016"
     inkscape:window-x="0"
     inkscape:window-y="27"
     inkscape:window-maximized="1" />
  <metadata
     id="metadata5657">
    <rdf:RDF>
      <cc:Work
         rdf:about="">
        <dc:format>image/svg+xml</dc:format>
        <dc:type
           rdf:resource="http://purl.org/dc/dcmitype/StillImage" />
        <dc:title></dc:title>
      </cc:Work>
    </rdf:RDF>
  </metadata>
  <g
     inkscape:label="Layer 1"
     inkscape:groupmode="layer"
     id="layer1"
     transform="translate(282.89111,-16.318727)">
    <g
       transform="translate(4701.4263,-1156.614)"
       id="g5580">
      <g
         style="fill:#d4d4d4;fill-opacity:1"
         transform="translate(-1024.6067)"
         id="g5551">
        <g
           style="fill:#d4d4d4;fill-opacity:1"
           transform="matrix(0.17036869,-0.07617959,0.07617959,0.17036869,-3923.379,1215.6646)"
           id="g5545">
          <path
             inkscape:connector-curvature="0"
             style="fill:#d4d4d4;fill-opacity:1"
             d="m 513.63,133.58 c -4.582,20.319 -14.244,37.651 -28.986,51.995 -13.945,13.946 -30.182,23.408 -48.709,28.391 -18.527,4.979 -36.955,5.079 -55.283,0.299 -65.344,45.818 -120.926,100.207 -166.746,163.16 5.977,18.325 6.575,37.353 1.793,57.073 -4.782,19.726 -14.344,36.759 -28.688,51.103 -14.742,14.742 -32.273,24.403 -52.594,28.983 -20.321,4.582 -39.645,3.688 -57.973,-2.688 l 61.559,-61.56 -2.391,-44.229 -23.309,-23.309 -44.227,-2.394 -61.559,61.562 C 0.142,423.638 -0.754,404.314 3.828,383.99 8.41,363.671 18.072,346.138 32.814,331.396 c 15.937,-15.938 35.062,-25.898 57.375,-29.883 22.313,-3.985 43.231,-1.595 62.754,7.172 57.773,-41.836 109.172,-94.629 154.195,-158.379 -8.367,-19.523 -10.459,-40.142 -6.275,-61.857 4.187,-21.715 14.045,-40.541 29.584,-56.479 14.742,-14.743 32.273,-24.405 52.597,-28.987 20.318,-4.582 39.645,-3.885 57.973,2.092 l -61.562,61.56 2.394,44.824 23.309,23.309 44.229,2.391 61.559,-61.559 c 6.369,18.335 7.266,37.66 2.684,57.98 z"
             id="path5509" />
        </g>
        <text
           transform="scale(0.89267342,1.1202305)"
           id="text5549"
           y="1142.2985"
           x="-4429.2764"
           style="font-style:normal;font-variant:normal;font-weight:normal;font-stretch:normal;font-size:109.14746857px;line-height:1.25;font-family:monospace;-inkscape-font-specification:monospace;letter-spacing:0px;word-spacing:0px;fill:#d4d4d4;fill-opacity:1;stroke:none;stroke-width:2.72868657"
           xml:space="preserve"><tspan
             style="font-style:normal;font-variant:normal;font-weight:bold;font-stretch:normal;font-family:monospace;-inkscape-font-specification:'monospace Bold';letter-spacing:5.52978992px;fill:#d4d4d4;fill-opacity:1;stroke-width:2.72868657"
             y="1142.2985"
             x="-4429.2764"
             id="tspan5547"
             sodipodi:role="line">&lt; &gt;</tspan></text>
      </g>
    </g>
  </g>
</svg>
